<svg width="3920" height="1080" viewBox="0 0 3920 1080" fill="none" xmlns="http://www.w3.org/2000/svg">
  <defs>
    <filter id="shadow" x="-20%" y="-20%" width="140%" height="140%">
      <feDropShadow dx="0" dy="16" stdDeviation="22" flood-color="#203044" flood-opacity="0.12"/>
    </filter>
    <style>
      .title { font-family: Inter, Arial, sans-serif; font-size: 34px; font-weight: 700; fill: #162033; }
      .screen-title { font-family: Inter, Arial, sans-serif; font-size: 28px; font-weight: 700; fill: #182337; }
      .section { font-family: Inter, Arial, sans-serif; font-size: 18px; font-weight: 700; fill: #182337; }
      .body { font-family: Inter, Arial, sans-serif; font-size: 15px; font-weight: 500; fill: #536075; }
      .label { font-family: Inter, Arial, sans-serif; font-size: 13px; font-weight: 600; fill: #7A8494; }
      .small { font-family: Inter, Arial, sans-serif; font-size: 12px; font-weight: 600; fill: #788397; }
      .button { font-family: Inter, Arial, sans-serif; font-size: 16px; font-weight: 700; fill: #FFFFFF; }
      .button-dark { font-family: Inter, Arial, sans-serif; font-size: 15px; font-weight: 700; fill: #182337; }
      .chip { font-family: Inter, Arial, sans-serif; font-size: 12px; font-weight: 700; fill: #206A4E; }
    </style>
  </defs>

  <rect width="3920" height="1080" fill="#EEF3F8"/>
  <text x="80" y="88" class="title">Sponzey FileSharing - Simple 3 Screen Redesign</text>
  <text x="80" y="122" class="body">Login, Dashboard, Settings</text>

  <g transform="translate(80 170)">
    <rect width="1180" height="820" rx="28" fill="#F9FBFD" filter="url(#shadow)"/>
    <rect width="1180" height="820" rx="28" stroke="#DCE5EF"/>
    <rect x="0" y="0" width="1180" height="72" rx="28" fill="#FFFFFF"/>
    <text x="36" y="46" class="screen-title">로그인</text>

    <g transform="translate(118 150)">
      <rect x="0" y="0" width="430" height="520" rx="24" fill="#FFFFFF" stroke="#DFE8F1"/>
      <circle cx="70" cy="72" r="30" fill="#E8F5EF"/>
      <path d="M60 74L68 82L83 62" stroke="#2F8F6A" stroke-width="5" stroke-linecap="round" stroke-linejoin="round"/>
      <text x="36" y="134" class="screen-title">내 기기로 시작</text>
      <text x="36" y="168" class="body">같은 이름과 비밀번호를 쓰는 기기끼리 자동으로 연결됩니다.</text>

      <text x="36" y="228" class="label">내 이름</text>
      <rect x="36" y="244" width="358" height="54" rx="12" fill="#F7FAFC" stroke="#D8E2EC"/>
      <text x="56" y="278" class="body">Dongwoo Mac</text>

      <text x="36" y="334" class="label">비밀번호</text>
      <rect x="36" y="350" width="358" height="54" rx="12" fill="#F7FAFC" stroke="#D8E2EC"/>
      <circle cx="62" cy="377" r="4" fill="#8B96A8"/>
      <circle cx="80" cy="377" r="4" fill="#8B96A8"/>
      <circle cx="98" cy="377" r="4" fill="#8B96A8"/>
      <circle cx="116" cy="377" r="4" fill="#8B96A8"/>
      <circle cx="134" cy="377" r="4" fill="#8B96A8"/>
      <circle cx="152" cy="377" r="4" fill="#8B96A8"/>

      <rect x="36" y="444" width="358" height="58" rx="14" fill="#2F8F6A"/>
      <text x="174" y="480" text-anchor="middle" class="button">시작하기</text>
    </g>

    <g transform="translate(628 166)">
      <rect x="0" y="0" width="390" height="96" rx="20" fill="#EEF8F4" stroke="#D7EFE5"/>
      <text x="28" y="36" class="section">주변 기기를 자동으로 찾는 중</text>
      <text x="28" y="66" class="body">로그인하면 바로 보낼 기기를 고를 수 있습니다.</text>

      <rect x="0" y="132" width="390" height="300" rx="22" fill="#FFFFFF" stroke="#DFE8F1"/>
      <text x="28" y="174" class="section">곧 보이는 화면</text>
      <g transform="translate(28 204)">
        <circle cx="22" cy="22" r="22" fill="#DDEBFF"/>
        <text x="60" y="18" class="body">Minji MacBook</text>
        <text x="60" y="43" class="small">바로 보낼 수 있음</text>
      </g>
      <g transform="translate(28 280)">
        <circle cx="22" cy="22" r="22" fill="#E7F4EF"/>
        <text x="60" y="18" class="body">회의실 PC</text>
        <text x="60" y="43" class="small">연결 준비 중</text>
      </g>
      <g transform="translate(28 356)">
        <circle cx="22" cy="22" r="22" fill="#FFF1D8"/>
        <text x="60" y="18" class="body">Jin iMac</text>
        <text x="60" y="43" class="small">방금 보임</text>
      </g>
    </g>
  </g>

  <g transform="translate(1370 170)">
    <rect width="1180" height="820" rx="28" fill="#F9FBFD" filter="url(#shadow)"/>
    <rect width="1180" height="820" rx="28" stroke="#DCE5EF"/>
    <rect x="0" y="0" width="1180" height="72" rx="28" fill="#FFFFFF"/>
    <text x="36" y="46" class="screen-title">대시보드</text>

    <g transform="translate(36 108)">
      <rect x="0" y="0" width="332" height="106" rx="22" fill="#182337"/>
      <text x="28" y="42" class="body" fill="#DDE5EF">내 기기</text>
      <text x="28" y="76" class="section" fill="#FFFFFF">Dongwoo Mac</text>
      <rect x="226" y="34" width="78" height="34" rx="17" fill="#E8F5EF"/>
      <text x="265" y="56" text-anchor="middle" class="chip">켜짐</text>

      <rect x="360" y="0" width="332" height="106" rx="22" fill="#FFFFFF" stroke="#DFE8F1"/>
      <text x="388" y="42" class="body">보낼 수 있는 기기</text>
      <text x="388" y="76" class="section">3개</text>

      <rect x="720" y="0" width="388" height="106" rx="22" fill="#FFFFFF" stroke="#DFE8F1"/>
      <text x="748" y="42" class="body">전송 중</text>
      <text x="748" y="76" class="section">1개 파일</text>
    </g>

    <g transform="translate(36 254)">
      <rect x="0" y="0" width="520" height="500" rx="24" fill="#FFFFFF" stroke="#DFE8F1"/>
      <text x="28" y="44" class="section">보낼 기기</text>

      <g transform="translate(28 76)">
        <rect width="464" height="88" rx="18" fill="#F4FAF8" stroke="#CDE9DE"/>
        <circle cx="44" cy="44" r="24" fill="#2F8F6A"/>
        <text x="44" y="50" text-anchor="middle" class="button">M</text>
        <text x="88" y="34" class="section">Minji MacBook</text>
        <text x="88" y="60" class="small">바로 보낼 수 있음</text>
        <rect x="360" y="27" width="76" height="34" rx="17" fill="#2F8F6A"/>
        <text x="398" y="49" text-anchor="middle" class="button">보내기</text>
      </g>

      <g transform="translate(28 184)">
        <rect width="464" height="88" rx="18" fill="#FFFFFF" stroke="#E1E9F2"/>
        <circle cx="44" cy="44" r="24" fill="#DDEBFF"/>
        <text x="44" y="50" text-anchor="middle" class="button-dark">P</text>
        <text x="88" y="34" class="section">회의실 PC</text>
        <text x="88" y="60" class="small">연결 준비 중</text>
        <rect x="360" y="27" width="76" height="34" rx="17" fill="#F1F5F9"/>
        <text x="398" y="49" text-anchor="middle" class="button-dark">대기</text>
      </g>

      <g transform="translate(28 292)">
        <rect width="464" height="88" rx="18" fill="#FFFFFF" stroke="#E1E9F2"/>
        <circle cx="44" cy="44" r="24" fill="#FFF1D8"/>
        <text x="44" y="50" text-anchor="middle" class="button-dark">J</text>
        <text x="88" y="34" class="section">Jin iMac</text>
        <text x="88" y="60" class="small">방금 보임</text>
        <rect x="360" y="27" width="76" height="34" rx="17" fill="#2F8F6A"/>
        <text x="398" y="49" text-anchor="middle" class="button">보내기</text>
      </g>
    </g>

    <g transform="translate(596 254)">
      <rect x="0" y="0" width="548" height="234" rx="24" fill="#FFFFFF" stroke="#DFE8F1"/>
      <text x="28" y="44" class="section">빠른 전송</text>
      <rect x="28" y="72" width="492" height="94" rx="20" fill="#F7FAFC" stroke="#D8E2EC" stroke-dasharray="8 8"/>
      <text x="274" y="112" text-anchor="middle" class="section">파일을 여기에 놓기</text>
      <text x="274" y="140" text-anchor="middle" class="body">또는 버튼으로 선택</text>
      <rect x="28" y="182" width="160" height="38" rx="19" fill="#2F8F6A"/>
      <text x="108" y="206" text-anchor="middle" class="button">파일 선택</text>
    </g>

    <g transform="translate(596 524)">
      <rect x="0" y="0" width="548" height="230" rx="24" fill="#FFFFFF" stroke="#DFE8F1"/>
      <text x="28" y="44" class="section">전송 중</text>
      <text x="470" y="44" text-anchor="end" class="body">72%</text>
      <text x="28" y="86" class="body">여름사진.zip</text>
      <text x="28" y="114" class="small">Minji MacBook으로 보내는 중</text>
      <rect x="28" y="140" width="492" height="12" rx="6" fill="#E7EDF4"/>
      <rect x="28" y="140" width="354" height="12" rx="6" fill="#2F8F6A"/>
      <rect x="28" y="176" width="100" height="36" rx="18" fill="#F1F5F9"/>
      <text x="78" y="199" text-anchor="middle" class="button-dark">취소</text>
    </g>
  </g>

  <g transform="translate(2660 170)">
    <rect width="1180" height="820" rx="28" fill="#F9FBFD" filter="url(#shadow)"/>
    <rect width="1180" height="820" rx="28" stroke="#DCE5EF"/>
    <rect x="0" y="0" width="1180" height="72" rx="28" fill="#FFFFFF"/>
    <text x="36" y="46" class="screen-title">설정</text>

    <g transform="translate(80 130)">
      <rect x="0" y="0" width="480" height="236" rx="24" fill="#FFFFFF" stroke="#DFE8F1"/>
      <text x="28" y="44" class="section">내 정보</text>
      <text x="28" y="88" class="label">내 이름</text>
      <rect x="28" y="104" width="312" height="52" rx="12" fill="#F7FAFC" stroke="#D8E2EC"/>
      <text x="48" y="137" class="body">Dongwoo Mac</text>
      <rect x="356" y="104" width="96" height="52" rx="12" fill="#F1F5F9"/>
      <text x="404" y="137" text-anchor="middle" class="button-dark">변경</text>
      <text x="28" y="194" class="body">같은 이름과 비밀번호로 연결된 기기끼리 파일을 주고받습니다.</text>
    </g>

    <g transform="translate(80 402)">
      <rect x="0" y="0" width="480" height="262" rx="24" fill="#FFFFFF" stroke="#DFE8F1"/>
      <text x="28" y="44" class="section">받기</text>
      <g transform="translate(28 78)">
        <text x="0" y="20" class="body">알아서 받기</text>
        <text x="0" y="48" class="small">연결된 기기에서 보낸 파일을 바로 받습니다.</text>
        <rect x="366" y="8" width="58" height="32" rx="16" fill="#2F8F6A"/>
        <circle cx="408" cy="24" r="12" fill="#FFFFFF"/>
      </g>
      <g transform="translate(28 154)">
        <text x="0" y="20" class="body">끝나면 알려주기</text>
        <text x="0" y="48" class="small">전송이 끝나면 알림을 보여줍니다.</text>
        <rect x="366" y="8" width="58" height="32" rx="16" fill="#2F8F6A"/>
        <circle cx="408" cy="24" r="12" fill="#FFFFFF"/>
      </g>
    </g>

    <g transform="translate(620 130)">
      <rect x="0" y="0" width="480" height="534" rx="24" fill="#FFFFFF" stroke="#DFE8F1"/>
      <text x="28" y="44" class="section">연결된 기기</text>
      <g transform="translate(28 78)">
        <rect width="424" height="84" rx="18" fill="#F7FAFC" stroke="#E1E9F2"/>
        <circle cx="42" cy="42" r="22" fill="#E8F5EF"/>
        <text x="42" y="48" text-anchor="middle" class="button-dark">M</text>
        <text x="78" y="34" class="body">Minji MacBook</text>
        <text x="78" y="59" class="small">자주 쓰는 기기</text>
      </g>
      <g transform="translate(28 182)">
        <rect width="424" height="84" rx="18" fill="#F7FAFC" stroke="#E1E9F2"/>
        <circle cx="42" cy="42" r="22" fill="#DDEBFF"/>
        <text x="42" y="48" text-anchor="middle" class="button-dark">P</text>
        <text x="78" y="34" class="body">회의실 PC</text>
        <text x="78" y="59" class="small">최근 연결됨</text>
      </g>
      <g transform="translate(28 286)">
        <rect width="424" height="84" rx="18" fill="#F7FAFC" stroke="#E1E9F2"/>
        <circle cx="42" cy="42" r="22" fill="#FFF1D8"/>
        <text x="42" y="48" text-anchor="middle" class="button-dark">J</text>
        <text x="78" y="34" class="body">Jin iMac</text>
        <text x="78" y="59" class="small">오늘 보임</text>
      </g>
      <rect x="28" y="430" width="424" height="52" rx="14" fill="#F1F5F9"/>
      <text x="240" y="463" text-anchor="middle" class="button-dark">모든 기기 새로 보기</text>
    </g>
  </g>
</svg>
